<svg xmlns="http://www.w3.org/2000/svg" xmlns:xlink="http://www.w3.org/1999/xlink" width="39.195" height="50" viewBox="0 0 39.195 50">
  <defs>
    <clipPath id="clip-path">
      <path id="Caminho_790" data-name="Caminho 790" d="M0,30.815H39.195v-50H0Z" transform="translate(0 19.185)" fill="none"/>
    </clipPath>
  </defs>
  <g id="Grupo_870" data-name="Grupo 870" transform="translate(0 19.185)">
    <g id="Grupo_866" data-name="Grupo 866" transform="translate(0 -19.185)" clip-path="url(#clip-path)">
      <g id="Grupo_865" data-name="Grupo 865" transform="translate(0.522 0.522)">
        <path id="Caminho_789" data-name="Caminho 789" d="M.61,18.123l3.229-1.092M1.355,20.49l6.521-2.108m9.455,9.166.537,4.566m-2.351-5.569.662,5.489M12.489,7.787l3.122,1.827m-2.116-4.8,6.354,4.173M19.533-4.66l2.69,1.446M20.8-6.646l3.586,2.262M30.232.531C30.789,3.5,31.5,7.31,32.059,10.279M8.053,18.829,9.439,23.69M31.253-.055,23.534.959M9.184,11.339c-.821-1.183-2.757-.526-3.63.625a3.264,3.264,0,0,0-3.6-.97A3.675,3.675,0,0,0-.209,15.538L3.635,27.7a4.158,4.158,0,0,0,.149.391L2.8,29.643A5.339,5.339,0,0,0,4.12,36.825a4.818,4.818,0,0,0,6.841-1.486l1.462-2.291,2.236-.469,6.013-.873a4.58,4.58,0,0,0,3.537-5.238,4.3,4.3,0,0,0-4.644-4.045l-.4.057,1.944-3.054L22.3,17.558a4.979,4.979,0,0,0,.407-.784L26.1,11.152l.164-.034,7.193-1.045a5.228,5.228,0,0,0,4.279-5.846A4.927,4.927,0,0,0,32.231-.2L28.108.4l2.327-3.654a5.333,5.333,0,0,0-1.321-7.177,4.817,4.817,0,0,0-6.841,1.48L13.495,4.813c-1.277,2.007-1.637,6.377-.381,8.645l-4.54,7.123-.7-2.2L7.12,15.853S10.5,13.231,9.184,11.339Z" transform="translate(0.379 11.283)" fill="none" stroke="#141414" stroke-linejoin="round" stroke-width="1"/>
      </g>
    </g>
  </g>
</svg>
